<svg width="100" height="100" viewBox="0 0 100 100" fill="none" xmlns="http://www.w3.org/2000/svg">
<path d="M22.5389 15.4555C17.525 34.0027 4.47222 44.1416 2.05555 53.0805C-0.361117 62.0194 -0.29723 82.1777 40.8194 93.2944C81.9361 104.411 94.7972 80.7916 97.4528 70.9583C109.9 24.925 31.4194 -17.3945 22.5389 15.4555Z" fill="#EFEFEF"/>
<path d="M86.1111 18.0556C83.8139 18.0556 81.9444 16.1861 81.9444 13.8889C81.9444 11.5917 83.8139 9.72223 86.1111 9.72223C88.4083 9.72223 90.2778 11.5917 90.2778 13.8889C90.2778 16.1861 88.4083 18.0556 86.1111 18.0556ZM86.1111 12.5C85.3472 12.5 84.7222 13.1222 84.7222 13.8889C84.7222 14.6556 85.3472 15.2778 86.1111 15.2778C86.875 15.2778 87.5 14.6556 87.5 13.8889C87.5 13.1222 86.875 12.5 86.1111 12.5Z" fill="#A4AFC1"/>
<path d="M12.5 0H9.72223V5.55556H12.5V0Z" fill="#A4AFC1"/>
<path d="M12.5 15.9722H9.72223V21.5278H12.5V15.9722Z" fill="#A4AFC1"/>
<path d="M5.55556 9.02777H0V11.8055H5.55556V9.02777Z" fill="#A4AFC1"/>
<path d="M21.5278 9.02777H15.9722V11.8055H21.5278V9.02777Z" fill="#A4AFC1"/>
<path d="M76.0417 18.75H23.9583C21.0833 18.75 18.75 21.0806 18.75 23.9583V76.0417C18.75 78.9194 21.0833 81.25 23.9583 81.25H76.0417C78.9167 81.25 81.25 78.9194 81.25 76.0417V23.9583C81.25 21.0806 78.9167 18.75 76.0417 18.75Z" fill="#F3F3F1"/>
<path d="M65.2361 62.425V62.4306C64.6833 63.7222 63.8056 64.8611 62.6833 65.7361C61.5222 66.6472 60.05 67.3972 58.2389 67.9333C56.4306 68.4778 54.2806 68.75 51.7889 68.75H34.0056V31.25H52.8139C56.2917 31.25 59.0778 32.0083 61.1639 33.5528C63.2639 35.1056 64.3111 37.4194 64.3111 40.5444C64.3111 42.4333 63.8361 44.0528 62.8778 45.3917C61.9278 46.7222 60.5556 47.7639 58.7861 48.4889V48.6111C61.1472 49.0944 62.975 50.1778 64.1778 51.8667C65.3806 53.5528 65.9972 55.6861 65.9972 58.2611C65.9972 59.7028 65.7083 61.0722 65.1667 62.3528L65.2361 62.425Z" fill="#2FDF84"/>
<path d="M57.3306 53.3888C56.2222 52.5666 54.6639 52.1666 52.65 52.1666H40.9583V61.7416H52.6833C54.6861 61.7416 56.2528 61.3222 57.3639 60.4694C58.4722 59.625 59.0417 58.4222 59.0417 56.875C59.0222 55.3611 58.475 54.1916 57.3639 53.3888H57.3306ZM54.7583 44.0694H54.7694C55.7694 43.3444 56.2583 42.3083 56.2583 40.9555C56.2583 39.4361 55.8167 38.3583 54.9194 37.7416C54.0306 37.1277 52.7472 36.8083 51.0611 36.8083H40.9583V45.1416H51.0611C52.5333 45.1388 53.7889 44.7722 54.7583 44.0694Z" fill="#F3F3F1"/>
<path d="M25 76.0417V23.9583C25 21.0806 27.3333 18.75 30.2083 18.75H23.9583C21.0833 18.75 18.75 21.0806 18.75 23.9583V76.0417C18.75 78.9194 21.0833 81.25 23.9583 81.25H30.2083C27.3333 81.25 25 78.9194 25 76.0417Z" fill="#D5DBE1"/>
<path d="M40.2556 31.25H34.0056V68.75H40.2556V31.25Z" fill="#00B871"/>
<path d="M47.2083 52.1667H40.9583V61.7417H47.2083V52.1667Z" fill="#D5DBE1"/>
<path d="M47.2083 36.8055H40.9583V45.1389H47.2083V36.8055Z" fill="#D5DBE1"/>
<path d="M76.0417 83.3333H23.9583C19.9389 83.3333 16.6667 80.0611 16.6667 76.0417V23.9584C16.6667 19.9389 19.9389 16.6667 23.9583 16.6667H76.0417C80.0611 16.6667 83.3333 19.9389 83.3333 23.9584V76.0417C83.3333 80.0611 80.0611 83.3333 76.0417 83.3333ZM23.9583 20.8334C22.2361 20.8334 20.8333 22.2361 20.8333 23.9584V76.0417C20.8333 77.7639 22.2361 79.1667 23.9583 79.1667H76.0417C77.7639 79.1667 79.1667 77.7639 79.1667 76.0417V23.9584C79.1667 22.2361 77.7639 20.8334 76.0417 20.8334H23.9583Z" fill="black"/>
<path d="M51.7889 70.8334H34.0056C32.8556 70.8334 31.9222 69.9 31.9222 68.75V31.25C31.9222 30.1 32.8556 29.1667 34.0056 29.1667H52.8139C56.7472 29.1667 59.9722 30.0806 62.4028 31.8806C65.05 33.8417 66.3945 36.7556 66.3945 40.5472C66.3945 42.8722 65.7806 44.9111 64.575 46.6056C64.1778 47.1611 63.725 47.675 63.2222 48.1445C64.2695 48.8111 65.1556 49.6528 65.875 50.6611C67.3389 52.7195 68.0833 55.275 68.0833 58.2639C68.0833 59.7695 67.8195 61.2389 67.3 62.6417C67.2833 62.85 67.2389 63.0528 67.1528 63.2472C66.4639 64.8639 65.3611 66.2945 63.9667 67.3834C62.5667 68.4833 60.8389 69.3445 58.8333 69.9361C56.8445 70.5306 54.4722 70.8334 51.7889 70.8334ZM36.0861 66.6667H51.7861C54.0611 66.6667 56.0306 66.4222 57.6361 65.9389C59.1417 65.4945 60.4028 64.875 61.3944 64.0972C62.1056 63.5417 62.6889 62.8445 63.1028 62.0611C63.1278 61.8861 63.1722 61.7111 63.2472 61.5389C63.6889 60.4972 63.9111 59.3945 63.9111 58.2584C63.9111 56.1556 63.4278 54.4111 62.475 53.075C61.6 51.8445 60.2167 51.0306 58.3667 50.6528C57.3944 50.4556 56.6972 49.6028 56.6972 48.6111C56.6972 47.7639 57.2111 46.8778 57.9945 46.5584C59.3861 45.9889 60.4583 45.1889 61.1778 44.1806C61.8806 43.1972 62.2222 42.0056 62.2222 40.5445C62.2222 38.0806 61.4889 36.3889 59.9194 35.2278C58.225 33.9695 55.8361 33.3334 52.8139 33.3334H36.0889V66.6667H36.0861Z" fill="black"/>
<path d="M52.6833 63.825H40.9583C39.8083 63.825 38.875 62.8917 38.875 61.7417V52.1667C38.875 51.0167 39.8083 50.0833 40.9583 50.0833H52.65C55.0167 50.0833 56.875 50.5611 58.3278 51.5417C58.4167 51.5889 58.5028 51.6417 58.5889 51.7028C60.2222 52.8861 61.0972 54.6639 61.125 56.85C61.125 59.0639 60.2611 60.8806 58.6306 62.1278C57.1583 63.2528 55.1583 63.825 52.6833 63.825ZM43.0417 59.6583H52.6833C54.2222 59.6583 55.3694 59.375 56.0972 58.8167C56.5 58.5083 56.9583 58.0139 56.9583 56.875C56.9472 55.9361 56.6194 55.4722 56.2889 55.1917C56.2222 55.1528 56.1556 55.1111 56.0944 55.0639C55.3639 54.525 54.2056 54.25 52.6528 54.25H43.0444V59.6583H43.0417ZM51.0611 47.2222H40.9583C39.8083 47.2222 38.875 46.2889 38.875 45.1389V36.8056C38.875 35.6556 39.8083 34.7222 40.9583 34.7222H51.0611C53.1583 34.7222 54.8556 35.1611 56.1056 36.0278C57.1222 36.7278 58.3417 38.1556 58.3417 40.9556C58.3417 42.9833 57.5278 44.6445 55.9889 45.7583C55.9361 45.7945 55.8861 45.8306 55.8333 45.8611C54.5361 46.7528 52.8889 47.2222 51.0611 47.2222ZM43.0417 43.0556H51.0611C52.0889 43.0556 52.9194 42.8278 53.5333 42.3833C53.5694 42.3583 53.6028 42.3333 53.6389 42.3111C53.9278 42.0778 54.175 41.7306 54.175 40.9528C54.175 40.5056 54.1167 39.7167 53.7389 39.4528C53.3639 39.1945 52.5972 38.8889 51.0611 38.8889H43.0417V43.0556Z" fill="black"/>
</svg>
