<svg width="100" height="100" viewBox="0 0 100 100" fill="none" xmlns="http://www.w3.org/2000/svg">
<path d="M0 50C0 22.3858 22.3858 0 50 0C77.6142 0 100 22.3858 100 50C100 77.6142 77.6142 100 50 100C22.3858 100 0 77.6142 0 50Z" fill="#333333"/>
<path d="M40 79.9998C45.5229 79.9998 50 75.5227 50 69.9998V59.9998H40C34.4771 59.9998 30 64.4771 30 69.9998C30 75.5227 34.4771 79.9998 40 79.9998Z" fill="#0ACF83"/>
<path d="M30 50C30 44.4771 34.4771 40 40 40H50V60H40C34.4771 60 30 55.5227 30 50Z" fill="#A259FF"/>
<path d="M30 30C30 24.4771 34.4771 19.9999 40 19.9999H50V40H40C34.4771 40 30 35.5227 30 30Z" fill="#F24E1E"/>
<path d="M50 19.9999H60C65.5229 19.9999 70 24.4771 70 30C70 35.5227 65.5229 40 60 40H50V19.9999Z" fill="#FF7262"/>
<path d="M70 50C70 55.5227 65.5229 60 60 60C54.4771 60 50 55.5227 50 50C50 44.4771 54.4771 40 60 40C65.5229 40 70 44.4771 70 50Z" fill="#1ABCFE"/>
</svg>
