<svg width="75" height="75" viewBox="0 0 75 75" fill="none" xmlns="http://www.w3.org/2000/svg">
<g clip-path="url(#clip0_4_129)">
<path d="M58.1659 -1H16.8341C7.53688 -1 0 6.53688 0 15.8341V57.1659C0 66.4631 7.53688 74 16.8341 74H58.1659C67.4631 74 75 66.4631 75 57.1659V15.8341C75 6.53688 67.4631 -1 58.1659 -1Z" fill="url(#paint0_linear_4_129)"/>
<path d="M25.9786 11.9893H49.3592C49.8788 12.249 50.6582 12.249 51.1777 12.5088C53.4577 12.8783 55.5894 13.8764 57.3333 15.3908C59.0772 16.9053 60.3642 18.8761 61.0496 21.0817C61.4332 22.3528 61.6942 23.6577 61.8289 24.9785V47.8396C61.4575 50.737 60.3877 53.5007 58.7115 55.893C57.2735 57.559 55.4707 58.8711 53.4432 59.7271C51.4157 60.5832 49.2181 60.9602 47.0212 60.8289H27.5373C24.0602 60.9976 20.6414 59.8889 17.9252 57.7115C16.2735 56.2844 14.9701 54.4984 14.1145 52.4903C13.259 50.4821 12.8741 48.3048 12.9893 46.125V27.9401C12.9464 26.6357 13.0334 25.3304 13.2491 24.0433C13.5114 21.3799 14.6065 18.867 16.3787 16.8616C18.1509 14.8563 20.51 13.4604 23.1209 12.8725L25.9786 11.9893ZM17.9252 36.6689V46.8005C17.8144 48.0907 17.9871 49.3895 18.4309 50.606C18.8748 51.8224 19.5792 52.9272 20.4949 53.8428C21.4106 54.7585 22.5153 55.4629 23.7318 55.9068C24.9483 56.3507 26.2471 56.5233 27.5373 56.4125C34.2917 56.6723 41.0461 56.6723 47.8005 56.4125C53.7756 56.4125 57.1528 52.7755 57.4126 46.8005C57.6724 40.0461 57.6724 33.2916 57.4126 26.5372C57.4799 25.2572 57.2774 23.9774 56.8181 22.7807C56.3589 21.584 55.6532 20.4973 54.7468 19.5909C53.8405 18.6846 52.7537 17.9789 51.5571 17.5196C50.3604 17.0604 49.0805 16.8579 47.8005 16.9252C41.0461 16.6654 34.2917 16.6654 27.5373 16.9252C26.2471 16.8144 24.9483 16.987 23.7318 17.4309C22.5153 17.8748 21.4106 18.5792 20.4949 19.4949C19.5792 20.4105 18.8748 21.5153 18.4309 22.7318C17.9871 23.9482 17.8144 25.247 17.9252 26.5372V36.6689Z" fill="white"/>
<path d="M25.0433 36.7728C25.0502 33.3989 26.3935 30.165 28.7793 27.7793C31.165 25.3935 34.3989 24.0502 37.7728 24.0433C41.1281 24.1098 44.3274 25.4723 46.7004 27.8453C49.0734 30.2182 50.4358 33.4176 50.5023 36.7728C50.4954 40.1468 49.1521 43.3806 46.7663 45.7663C44.3806 48.1521 41.1468 49.4954 37.7728 49.5023C34.4176 49.4358 31.2182 48.0734 28.8453 45.7004C26.4723 43.3274 25.1098 40.1281 25.0433 36.7728ZM37.7728 28.7195C36.1949 28.6938 34.6453 29.1399 33.3226 30.0006C31.9999 30.8612 30.9643 32.0973 30.3485 33.5503C29.7328 35.0033 29.565 36.607 29.8665 38.1561C30.1681 39.7051 30.9254 41.1287 32.0412 42.2446C33.1571 43.3605 34.5808 44.1177 36.1298 44.4193C37.6788 44.7209 39.2826 44.553 40.7356 43.9373C42.1886 43.3215 43.4246 42.286 44.2853 40.9632C45.1459 39.6405 45.592 38.0909 45.5664 36.513C45.5664 34.446 44.7453 32.4637 43.2837 31.0021C41.8221 29.5406 39.8398 28.7195 37.7728 28.7195Z" fill="white"/>
<path d="M47.6446 23.5237C47.6301 23.1104 47.7008 22.6985 47.8524 22.3138C48.0039 21.929 48.233 21.5795 48.5254 21.2871C48.8178 20.9946 49.1673 20.7655 49.5521 20.614C49.9369 20.4625 50.3488 20.3918 50.7621 20.4063C51.5708 20.461 52.3324 20.807 52.9056 21.3802C53.4788 21.9534 53.8248 22.7149 53.8795 23.5237C53.8795 24.3505 53.551 25.1434 52.9664 25.7281C52.3818 26.3127 51.5889 26.6411 50.7621 26.6411C49.9353 26.6411 49.1423 26.3127 48.5577 25.7281C47.9731 25.1434 47.6446 24.3505 47.6446 23.5237Z" fill="white"/>
</g>
<defs>
<linearGradient id="paint0_linear_4_129" x1="-4.78005" y1="78.1566" x2="83.5469" y2="-8.87149" gradientUnits="userSpaceOnUse">
<stop stop-color="#FED576"/>
<stop offset="0.26" stop-color="#F47133"/>
<stop offset="0.61" stop-color="#BC3081"/>
<stop offset="1" stop-color="#4C63D2"/>
</linearGradient>
<clipPath id="clip0_4_129">
<rect width="75" height="75" fill="white"/>
</clipPath>
</defs>
</svg>
