<svg width="75" height="75" viewBox="0 0 75 75" fill="none" xmlns="http://www.w3.org/2000/svg">
<path d="M58.1659 0H16.8341C7.53688 0 0 7.53688 0 16.8341V58.1659C0 67.4631 7.53688 75 16.8341 75H58.1659C67.4631 75 75 67.4631 75 58.1659V16.8341C75 7.53688 67.4631 0 58.1659 0Z" fill="#3692FB"/>
<path d="M37.513 16.7302C34.8835 16.6259 32.2593 17.0414 29.7907 17.953C27.3221 18.8646 25.0576 20.2543 23.127 22.0426C21.1963 23.8308 19.6375 25.9824 18.5399 28.3741C17.4422 30.7658 16.8272 33.3505 16.7302 35.9803C16.7642 38.9147 17.4872 41.8 18.8409 44.4037C20.1947 47.0074 22.1412 49.2566 24.5237 50.9699V58.2958L31.5639 54.3991C33.4925 54.9357 35.4852 55.2066 37.487 55.2044C40.1165 55.3087 42.7407 54.8932 45.2093 53.9816C47.6779 53.07 49.9424 51.6803 51.873 49.892C53.8037 48.1038 55.3625 45.9522 56.4601 43.5605C57.5578 41.1688 58.1728 38.5841 58.2698 35.9543C58.1694 33.3291 57.5528 30.7493 56.4553 28.3623C55.3578 25.9754 53.8008 23.828 51.8733 22.0429C49.9458 20.2577 47.6856 18.8697 45.2216 17.9581C42.7576 17.0466 40.1382 16.6293 37.513 16.7302V16.7302ZM39.5653 42.7087L34.3696 37.0714L23.9782 42.7087L35.2788 30.6547L40.6564 36.292L50.788 30.6547L39.5653 42.7087Z" fill="white"/>
</svg>
