<svg width="75" height="75" viewBox="0 0 75 75" fill="none" xmlns="http://www.w3.org/2000/svg">
<path d="M58.1659 0H16.8341C7.53688 0 0 7.53688 0 16.8341V58.1659C0 67.4631 7.53688 75 16.8341 75H58.1659C67.4631 75 75 67.4631 75 58.1659V16.8341C75 7.53688 67.4631 0 58.1659 0Z" fill="#00C7FF"/>
<path fill-rule="evenodd" clip-rule="evenodd" d="M30.4988 47.0471C28.727 47.0032 27.0126 46.4096 25.593 45.3484C24.1734 44.2872 23.1189 42.811 22.5753 41.124C23.7817 41.3912 25.0319 41.3912 26.2383 41.124C25.0974 40.8559 24.024 40.3553 23.0853 39.6535C22.1466 38.9518 21.3628 38.0639 20.7828 37.0454C19.9344 35.6833 19.5011 34.1035 19.5358 32.4991C20.7003 33.1402 22.0001 33.4963 23.3287 33.5383C21.5457 32.3112 20.2928 30.4551 19.8216 28.3426C19.3452 26.2428 19.6891 24.0403 20.7828 22.1857C22.9228 24.8242 25.5902 26.9866 28.6144 28.5345C31.6385 30.0823 34.9526 30.9814 38.3443 31.1742C38.3443 30.8365 38.3443 30.5508 38.2144 30.239C37.9808 28.4708 38.3078 26.6739 39.1496 25.1014C39.9913 23.529 41.3052 22.2603 42.9062 21.4742C44.5071 20.688 46.3144 20.4241 48.0733 20.7195C49.8323 21.0149 51.4541 21.8549 52.7104 23.1209C52.765 23.1811 52.8351 23.225 52.913 23.2479C52.9909 23.2709 53.0736 23.2718 53.1521 23.2508C54.8945 22.8803 56.5686 22.2404 58.114 21.3544C57.4932 23.2584 56.2366 24.8911 54.5549 25.9785C56.1947 25.7963 57.7975 25.3671 59.309 24.7056L58.4517 25.9785C57.5506 27.0849 56.5117 28.0714 55.3602 28.9141C55.3173 28.9419 55.2827 28.9806 55.2598 29.0263C55.237 29.072 55.2268 29.1229 55.2303 29.1739C55.2802 30.4403 55.2281 31.7087 55.0745 32.9668C54.7436 35.5961 53.9983 38.1564 52.8663 40.5525C51.7196 43.0361 50.1654 45.3103 48.2681 47.2809C45.1051 50.5805 41.0229 52.8525 36.5518 53.8015C34.9886 54.1411 33.3968 54.3325 31.7977 54.3731C26.9963 54.5372 22.2556 53.2616 18.185 50.7101L17.9771 50.5802C20.8579 50.8909 23.7705 50.471 26.4461 49.3592C27.8971 48.7789 29.2608 48.0008 30.4988 47.0471Z" fill="white"/>
</svg>
